<svg xmlns="http://www.w3.org/2000/svg" viewBox="0 0 200 200" width="200" height="200" role="img" aria-label="Catacombs">
  <path d="M 189.99 98.9 L 189.83 94.48 L 189.45 90.08 L 188.67 84.61 L 187.81 80.28 L 186.74 76 L 185.46 71.77 L 183.97 67.61 L 182.72 64.54 L 182.28 63.53 L 181.83 62.52 L 142.52 85.27 L 143.51 88.53 L 144.34 92.31 L 144.83 96.14 L 145 100 L 144.83 103.86 L 144.34 107.69 L 143.51 111.47 L 142.52 114.73 L 181.84 137.44 L 183.97 132.39 L 185.46 128.23 L 186.74 124 L 188.05 118.64 L 189.03 113.21 L 189.57 108.82 L 189.89 104.42 Z M 173.34 47.84 L 169.57 42.9 L 166.69 39.56 L 162.85 35.58 L 159.62 32.58 L 156.24 29.73 L 152.72 27.06 L 149.08 24.56 L 144.36 21.69 L 139.48 19.12 L 135.46 17.28 L 130.32 15.26 L 126.13 13.88 L 120.8 12.44 L 116.47 11.52 L 112.11 10.82 L 109.92 10.55 L 108.82 10.43 L 107.72 10.33 L 108.5 10.4 L 108.5 55.81 L 112 56.63 L 115.68 57.82 L 119.24 59.32 L 122.66 61.12 L 125.46 62.89 L 128.55 65.21 L 131.43 67.79 L 134.02 70.54 Z M 91.18 10.43 L 85.7 11.14 L 81.36 11.95 L 76 13.26 L 71.77 14.54 L 67.61 16.03 L 63.53 17.72 L 59.53 19.61 L 54.68 22.24 L 50.92 24.56 L 46.39 27.71 L 42.9 30.43 L 38.75 34.06 L 35.58 37.15 L 32.58 40.38 L 29.05 44.63 L 27.71 46.39 L 27.06 47.28 L 26.42 48.18 L 26.66 47.84 L 65.98 70.54 L 68.57 67.79 L 71.45 65.21 L 74.09 63.21 L 77.34 61.12 L 80.76 59.32 L 84.32 57.82 L 88 56.63 L 91.5 55.81 L 91.5 10.4 L 92.28 10.33 Z M 18.16 62.56 L 16.03 67.61 L 14.54 71.77 L 13.26 76 L 11.95 81.36 L 11.14 85.7 L 10.55 90.08 L 10.11 95.58 L 10 100 L 10.11 104.42 L 10.43 108.82 L 11.14 114.3 L 11.95 118.64 L 13.26 124 L 14.54 128.23 L 16.03 132.39 L 18.16 137.44 L 57.48 114.73 L 56.49 111.47 L 55.66 107.69 L 55.17 103.86 L 55 100 L 55.17 96.14 L 55.66 92.31 L 56.49 88.53 L 57.48 85.27 Z M 27.06 152.72 L 29.73 156.24 L 32.58 159.62 L 36.36 163.64 L 39.56 166.69 L 42.9 169.57 L 47.28 172.94 L 50.92 175.44 L 55.64 178.31 L 59.53 180.39 L 63.53 182.28 L 67.61 183.97 L 72.82 185.8 L 78.13 187.3 L 82.44 188.27 L 86.79 189.03 L 90.08 189.45 L 91.18 189.57 L 92.28 189.67 L 91.5 189.6 L 91.5 144.19 L 88 143.37 L 84.32 142.18 L 80.76 140.68 L 77.34 138.88 L 74.54 137.11 L 71.45 134.79 L 68.57 132.21 L 65.98 129.46 L 26.66 152.16 L 26.42 151.82 Z M 108.82 189.57 L 113.21 189.03 L 118.64 188.05 L 122.94 187.03 L 127.18 185.8 L 131.36 184.36 L 136.47 182.28 L 141.45 179.89 L 145.32 177.76 L 149.08 175.44 L 153.61 172.29 L 157.1 169.57 L 160.44 166.69 L 164.42 162.85 L 167.42 159.62 L 170.95 155.37 L 172.29 153.61 L 172.94 152.72 L 173.58 151.82 L 173.34 152.16 L 134.02 129.46 L 131.43 132.21 L 128.55 134.79 L 125.46 137.11 L 122.66 138.88 L 119.24 140.68 L 115.68 142.18 L 112 143.37 L 108.5 144.19 L 108.5 189.6 L 107.72 189.67 Z M 100 72 A 28 28 0 0 1 100 128 A 28 28 0 0 1 100 72 Z" fill="#35327e" fill-rule="evenodd"/>
  <circle cx="100" cy="100" r="28" fill="#6864bb"/>
</svg>
