<svg xmlns="http://www.w3.org/2000/svg" viewBox="0 0 200 200" width="200" height="200" role="img" aria-label="Mantra">
  <path d="M 189.99 98.9 L 189.83 94.48 L 189.57 91.18 L 189.03 86.79 L 188.27 82.44 L 187.3 78.13 L 186.44 74.93 L 185.1 70.72 L 183.57 66.58 L 181.83 62.52 L 180.39 59.53 L 178.31 55.64 L 176.04 51.85 L 174.21 49.08 L 171.63 45.5 L 168.87 42.06 L 165.94 38.75 L 162.85 35.58 L 159.62 32.58 L 157.1 30.43 L 153.61 27.71 L 150 25.17 L 147.21 23.38 L 143.4 21.15 L 139.48 19.12 L 135.46 17.28 L 131.36 15.64 L 128.23 14.54 L 124 13.26 L 119.72 12.19 L 115.39 11.33 L 112.11 10.82 L 109.92 10.55 L 108.82 10.43 L 107.72 10.33 L 108.5 10.4 L 108.5 55.81 L 110.93 56.35 L 113.06 56.94 L 115.16 57.63 L 117.73 58.64 L 119.74 59.56 L 122.18 60.85 L 124.07 61.98 L 125.91 63.21 L 128.12 64.87 L 129.81 66.29 L 131.43 67.79 L 132.97 69.37 L 134.43 71.03 L 136.14 73.19 L 137.42 75 L 138.6 76.87 L 139.69 78.79 L 140.91 81.26 L 141.78 83.29 L 142.55 85.36 L 143.22 87.47 L 143.91 90.14 L 144.34 92.31 L 144.66 94.49 L 144.88 96.69 L 144.99 98.9 L 144.97 101.66 L 144.83 103.86 L 144.51 106.6 L 144.14 108.78 L 143.65 110.93 L 143.06 113.06 L 142.18 115.68 L 140.91 118.74 L 139.69 121.21 L 138.31 123.61 L 136.79 125.91 L 135.13 128.12 L 133.34 130.22 L 131.43 132.21 L 129.39 134.07 L 127.25 135.81 L 125 137.42 L 122.66 138.88 L 120.23 140.2 L 117.22 141.57 L 114.64 142.55 L 112 143.37 L 109.32 144.02 L 106.6 144.51 L 103.86 144.83 L 101.1 144.99 L 97.79 144.95 L 95.04 144.73 L 92.31 144.34 L 89.6 143.78 L 86.94 143.06 L 84.32 142.18 L 81.26 140.91 L 78.79 139.69 L 76.39 138.31 L 74.09 136.79 L 71.88 135.13 L 69.78 133.34 L 67.79 131.43 L 65.93 129.39 L 64.19 127.25 L 62.58 125 L 60.85 122.18 L 59.56 119.74 L 58.43 117.22 L 57.45 114.64 L 56.63 112 L 55.98 109.32 L 55.41 106.06 L 55.12 103.31 L 55 100.55 L 55.05 97.79 L 55.27 95.04 L 55.76 91.76 L 56.49 88.53 L 57.45 85.36 L 58.86 81.76 L 60.31 78.79 L 61.98 75.93 L 63.86 73.19 L 65.93 70.61 L 68.18 68.18 L 70.61 65.93 L 73.19 63.86 L 75.93 61.98 L 78.79 60.31 L 81.76 58.86 L 84.84 57.63 L 88 56.63 L 91.5 55.81 L 91.5 10.4 L 92.28 10.33 L 91.18 10.43 L 90.08 10.55 L 87.89 10.82 L 84.61 11.33 L 80.28 12.19 L 76 13.26 L 71.77 14.54 L 67.61 16.03 L 63.53 17.72 L 59.53 19.61 L 55.64 21.69 L 51.85 23.96 L 48.18 26.42 L 45.5 28.37 L 42.06 31.13 L 38.75 34.06 L 36.36 36.36 L 33.31 39.56 L 30.43 42.9 L 28.37 45.5 L 25.79 49.08 L 23.38 52.79 L 21.15 56.6 L 19.12 60.52 L 17.28 64.54 L 15.64 68.64 L 14.54 71.77 L 13.26 76 L 12.19 80.28 L 11.33 84.61 L 10.68 88.98 L 10.24 93.38 L 10.03 97.79 L 10.01 101.1 L 10.17 105.52 L 10.55 109.92 L 11.14 114.3 L 11.95 118.64 L 12.97 122.94 L 14.2 127.18 L 15.64 131.36 L 17.28 135.46 L 19.12 139.48 L 21.15 143.4 L 23.38 147.21 L 25.79 150.92 L 28.37 154.5 L 31.13 157.94 L 34.06 161.25 L 37.15 164.42 L 40.38 167.42 L 43.76 170.27 L 47.28 172.94 L 50.92 175.44 L 54.68 177.76 L 58.55 179.89 L 62.52 181.83 L 66.58 183.57 L 70.72 185.1 L 74.93 186.44 L 79.2 187.56 L 83.53 188.48 L 87.89 189.18 L 92.28 189.67 L 96.69 189.94 L 101.1 189.99 L 105.52 189.83 L 109.92 189.45 L 114.3 188.86 L 118.64 188.05 L 122.94 187.03 L 127.18 185.8 L 131.36 184.36 L 135.46 182.72 L 139.48 180.88 L 143.4 178.85 L 147.21 176.62 L 150.92 174.21 L 154.5 171.63 L 157.94 168.87 L 161.25 165.94 L 164.42 162.85 L 167.42 159.62 L 170.27 156.24 L 172.94 152.72 L 175.44 149.08 L 177.76 145.32 L 179.89 141.45 L 181.83 137.48 L 183.57 133.42 L 185.1 129.28 L 186.44 125.07 L 187.56 120.8 L 188.48 116.47 L 189.18 112.11 L 189.67 107.72 L 189.94 103.31 Z M 100 72 A 28 28 0 0 1 100 128 A 28 28 0 0 1 100 72 Z" fill="#18400e" fill-rule="evenodd"/>
  <circle cx="100" cy="100" r="28" fill="#31a117"/>
</svg>
