<svg xmlns="http://www.w3.org/2000/svg" viewBox="0 0 200 200" width="200" height="200" role="img" aria-label="Sanctuary">
  <path d="M 189.57 91.18 L 189.03 86.79 L 188.48 83.53 L 187.81 80.28 L 186.74 76 L 185.46 71.77 L 184.36 68.64 L 182.72 64.54 L 181.36 61.52 L 179.37 57.57 L 177.76 54.68 L 175.44 50.92 L 173.58 48.18 L 171.63 45.5 L 168.87 42.06 L 166.69 39.56 L 163.64 36.36 L 161.25 34.06 L 157.94 31.13 L 154.5 28.37 L 151.82 26.42 L 149.08 24.56 L 145.32 22.24 L 142.43 20.63 L 138.48 18.64 L 135.46 17.28 L 131.36 15.64 L 128.23 14.54 L 124 13.26 L 119.72 12.19 L 115.39 11.33 L 112.11 10.82 L 109.92 10.55 L 108.82 10.43 L 107.72 10.33 L 108.5 10.4 L 108.5 55.81 L 112 56.63 L 115.16 57.63 L 118.24 58.86 L 121.21 60.31 L 124.07 61.98 L 126.81 63.86 L 129.39 65.93 L 131.82 68.18 L 134.07 70.61 L 136.14 73.19 L 138.02 75.93 L 139.69 78.79 L 141.14 81.76 L 142.37 84.84 L 143.37 88 L 144.19 91.5 L 189.6 91.5 L 189.67 92.28 Z M 91.18 10.43 L 87.89 10.82 L 83.53 11.52 L 79.2 12.44 L 76 13.26 L 71.77 14.54 L 68.64 15.64 L 64.54 17.28 L 61.52 18.64 L 58.55 20.11 L 54.68 22.24 L 50.92 24.56 L 48.18 26.42 L 44.63 29.05 L 42.06 31.13 L 38.75 34.06 L 36.36 36.36 L 34.06 38.75 L 31.13 42.06 L 28.37 45.5 L 26.42 48.18 L 23.96 51.85 L 22.24 54.68 L 20.11 58.55 L 18.17 62.52 L 16.85 65.56 L 15.26 69.68 L 14.2 72.82 L 12.97 77.06 L 12.19 80.28 L 11.33 84.61 L 10.82 87.89 L 10.55 90.08 L 10.43 91.18 L 10.33 92.28 L 10.4 91.5 L 55.81 91.5 L 56.63 88 L 57.63 84.84 L 58.86 81.76 L 60.31 78.79 L 61.98 75.93 L 63.86 73.19 L 65.93 70.61 L 68.18 68.18 L 70.61 65.93 L 73.19 63.86 L 75.93 61.98 L 78.79 60.31 L 81.76 58.86 L 84.84 57.63 L 88 56.63 L 91.5 55.81 L 91.5 10.4 L 92.28 10.33 Z M 10.4 108.5 L 10.82 112.11 L 11.52 116.47 L 12.44 120.8 L 13.26 124 L 14.2 127.18 L 15.64 131.36 L 16.85 134.44 L 18.64 138.48 L 20.11 141.45 L 22.24 145.32 L 23.96 148.15 L 26.42 151.82 L 29.05 155.37 L 31.13 157.94 L 33.31 160.44 L 36.36 163.64 L 39.56 166.69 L 42.9 169.57 L 45.5 171.63 L 49.08 174.21 L 52.79 176.62 L 55.64 178.31 L 58.55 179.89 L 62.52 181.83 L 65.56 183.15 L 69.68 184.74 L 72.82 185.8 L 77.06 187.03 L 81.36 188.05 L 84.61 188.67 L 87.89 189.18 L 90.08 189.45 L 91.18 189.57 L 92.28 189.67 L 91.5 189.6 L 91.5 144.19 L 88 143.37 L 84.84 142.37 L 81.76 141.14 L 78.79 139.69 L 75.93 138.02 L 73.19 136.14 L 70.61 134.07 L 68.18 131.82 L 65.93 129.39 L 63.86 126.81 L 61.98 124.07 L 60.31 121.21 L 58.86 118.24 L 57.63 115.16 L 56.63 112 L 55.81 108.5 Z M 108.82 189.57 L 113.21 189.03 L 117.56 188.27 L 121.87 187.3 L 125.07 186.44 L 129.28 185.1 L 132.39 183.97 L 136.47 182.28 L 139.48 180.88 L 142.43 179.37 L 146.27 177.2 L 149.08 175.44 L 152.72 172.94 L 155.37 170.95 L 158.79 168.15 L 162.06 165.18 L 164.42 162.85 L 167.42 159.62 L 169.57 157.1 L 172.29 153.61 L 174.21 150.92 L 176.62 147.21 L 178.31 144.36 L 180.39 140.47 L 181.83 137.48 L 183.57 133.42 L 184.74 130.32 L 185.8 127.18 L 187.03 122.94 L 187.81 119.72 L 188.67 115.39 L 189.18 112.11 L 189.45 109.92 L 189.57 108.82 L 189.67 107.72 L 189.6 108.5 L 144.19 108.5 L 143.37 112 L 142.37 115.16 L 141.14 118.24 L 139.69 121.21 L 138.02 124.07 L 136.14 126.81 L 134.07 129.39 L 131.82 131.82 L 129.39 134.07 L 126.81 136.14 L 124.07 138.02 L 121.21 139.69 L 118.24 141.14 L 115.16 142.37 L 112 143.37 L 108.5 144.19 L 108.5 189.6 L 107.72 189.67 Z M 100 72 A 28 28 0 0 1 100 128 A 28 28 0 0 1 100 72 Z" fill="#60481a" fill-rule="evenodd"/>
  <circle cx="100" cy="100" r="28" fill="#dfa51a"/>
</svg>
